<svg xmlns="http://www.w3.org/2000/svg" width="414.5394287109375" height="355.2098693847656" viewBox="-109.0979995727539 -94.99365997314453 414.5394287109375 355.2098693847656"><title>Neo4j Graph Visualization</title><desc>Created using Neo4j (http://www.neo4j.com/)</desc><g class="layer relationships"><g class="relationship" transform="translate(184.56454846673284 -65.99365995718706) rotate(411.1570277250021)"><path class="outline" fill="#A5ABB6" stroke="none" d="M 24.018736134675446,-6.953439040707552 L 24.277555179777966,-5.987513214418485 A 108.40273217835765 108.40273217835765 0 0 1 41.68677356476818,-9.157074329353478 L 41.58855211748586,-10.152238912371672 A 109.40273217835765 109.40273217835765 0 0 0 24.018736134675446,-6.953439040707552 Z M 59.648381588917076,-10.436479185450011 L 59.58152645070802,-9.438716492974962 A 108.40273217835765 108.40273217835765 0 0 1 77.08186763818671,-6.8185903968822075 L 76.39698764488217,-3.8978132066858735 L 84.01116108086224,-5.707333277537706 L 77.99504096259274,-10.712959983810654 L 77.3101609692882,-7.7921827936143195 A 109.40273217835765 109.40273217835765 0 0 0 59.648381588917076,-10.436479185450011"/><text text-anchor="middle" pointer-events="none" font-size="8px" fill="#000000" x="50.620459354815424" y="-7.1677610866307475" font-family="sans-serif">trek</text></g><g class="relationship" transform="translate(252.52099292650956 18.397421164263108) rotate(437.949478492775)"><path class="outline" fill="#A5ABB6" stroke="none" d="M 21.40063509461097,-12.933012701892217 L 21.90063509461097,-12.06698729810778 A 67.29204827596259 67.29204827596259 0 0 1 32.715860517410405,-17.091030612092396 L 32.37658122215767,-18.031716298075125 A 68.29204827596259 68.29204827596259 0 0 0 21.40063509461097,-12.933012701892217 Z M 74.95330284609958,-19.26697084396288 L 74.6691314952113,-18.308197334037658 A 67.29204827596259 67.29204827596259 0 0 1 85.75743974203235,-13.9196289581044 L 84.4105890538702,-11.238958664353756 L 92.23681220881087,-11.22375573468451 L 87.55324065958187,-17.493856016438592 L 86.20638997141972,-14.813185722687948 A 68.29204827596259 68.29204827596259 0 0 0 74.95330284609958,-19.26697084396288"/><text text-anchor="middle" pointer-events="none" font-size="8px" fill="#000000" x="53.58067378842418" y="-18.553899276594365" font-family="sans-serif">twowheeler</text></g><g class="relationship" transform="translate(276.44143900981993 130.4483491723224) rotate(525.7465865179702)"><path class="outline" fill="#A5ABB6" stroke="none" d="M 21.40063509461097,12.933012701892217 L 21.90063509461097,12.06698729810778 A 66.31445748302752 66.31445748302752 0 0 0 42.76924072174593,19.802901587857818 L 42.583932365456896,20.785582010523015 A 67.31445748302752 67.31445748302752 0 0 1 21.40063509461097,12.933012701892217 Z M 63.64510345155842,21.401460325416338 L 63.517534427956036,20.4096306302483 A 66.31445748302752 66.31445748302752 0 0 0 84.80252661662911,13.906386959019708 L 83.45690770141215,11.225098139252184 L 91.2831370152895,11.213490960141375 L 86.59668517025173,17.481438718709736 L 85.25106625503477,14.800149898942214 A 67.31445748302752 67.31445748302752 0 0 1 63.64510345155842,21.401460325416338"/><text text-anchor="middle" pointer-events="none" font-size="8px" fill="#000000" x="53.10488635106381" y="24.422891230602204" transform="rotate(180 53.10488635106381 21.422891230602204)" font-family="sans-serif">road</text></g><g class="relationship" transform="translate(166.31210092952927 158.42462238807948) rotate(502.9859890365616)"><path class="outline" fill="#A5ABB6" stroke="none" d="M 25 0.5 L 47.957097241688814 0.5 L 47.957097241688814 -0.5 L 25 -0.5 Z M 65.95709724168881 0.5 L 88.91419448337763 0.5 L 88.91419448337763 3.5 L 95.91419448337763 0 L 88.91419448337763 -3.5 L 88.91419448337763 -0.5 L 65.95709724168881 -0.5 Z"/><text text-anchor="middle" pointer-events="none" font-size="8px" fill="#000000" x="56.957097241688814" y="3" transform="rotate(180 56.957097241688814 0)" font-family="sans-serif">trek</text></g><g class="relationship" transform="translate(276.44143900981993 130.4483491723224) rotate(525.7465865179702)"><path class="outline" fill="#A5ABB6" stroke="none" d="M 25 0.5 L 44.313605256676084 0.5 L 44.313605256676084 -0.5 L 25 -0.5 Z M 62.313605256676084 0.5 L 81.62721051335217 0.5 L 81.62721051335217 3.5 L 88.62721051335217 0 L 81.62721051335217 -3.5 L 81.62721051335217 -0.5 L 62.313605256676084 -0.5 Z"/><text text-anchor="middle" pointer-events="none" font-size="8px" fill="#000000" x="53.313605256676084" y="3" transform="rotate(180 53.313605256676084 0)" font-family="sans-serif">trek</text></g><g class="relationship" transform="translate(276.44143900981993 130.4483491723224) rotate(525.7465865179702)"><path class="outline" fill="#A5ABB6" stroke="none" d="M 21.40063509461097,-12.933012701892217 L 21.90063509461097,-12.06698729810778 A 66.31445748302752 66.31445748302752 0 0 1 32.25521195372875,-16.90773274327819 L 31.911355534663087,-17.846754981069893 A 67.31445748302752 67.31445748302752 0 0 0 21.40063509461097,-12.933012701892217 Z M 74.47117292304517,-19.091304417953836 L 74.18277560376475,-18.13379358969555 A 66.31445748302752 66.31445748302752 0 0 1 84.80252661662911,-13.906386959019708 L 83.45690770141215,-11.225098139252184 L 91.2831370152895,-11.213490960141375 L 86.59668517025173,-17.481438718709736 L 85.25106625503477,-14.800149898942214 A 67.31445748302752 67.31445748302752 0 0 0 74.47117292304517,-19.091304417953836"/><text text-anchor="middle" pointer-events="none" font-size="8px" fill="#000000" x="53.10488635106382" y="-18.422891230602204" transform="rotate(180 53.10488635106382 -21.422891230602204)" font-family="sans-serif">twowheeler</text></g><g class="relationship" transform="translate(252.52099292650956 18.397421164263108) rotate(437.949478492775)"><path class="outline" fill="#A5ABB6" stroke="none" d="M 25 0.5 L 43.28786566169978 0.5 L 43.28786566169978 -0.5 L 25 -0.5 Z M 64.28786566169978 0.5 L 82.57573132339957 0.5 L 82.57573132339957 3.5 L 89.57573132339957 0 L 82.57573132339957 -3.5 L 82.57573132339957 -0.5 L 64.28786566169978 -0.5 Z"/><text text-anchor="middle" pointer-events="none" font-size="8px" fill="#000000" x="53.78786566169978" y="3" font-family="sans-serif">road</text></g><g class="relationship" transform="translate(252.52099292650956 18.397421164263108) rotate(437.949478492775)"><path class="outline" fill="#A5ABB6" stroke="none" d="M 21.40063509461097,12.933012701892217 L 21.90063509461097,12.06698729810778 A 67.29204827596259 67.29204827596259 0 0 0 44.70869123726925,20.203903382836288 L 44.5476325643206,21.190848216080795 A 68.29204827596259 68.29204827596259 0 0 1 21.40063509461097,12.933012701892217 Z M 62.61956946602282,21.71515918600457 L 62.5160008894171,20.72053687078143 A 67.29204827596259 67.29204827596259 0 0 0 85.75743974203235,13.9196289581044 L 84.4105890538702,11.238958664353756 L 92.23681220881087,11.22375573468451 L 87.55324065958187,17.493856016438592 L 86.20638997141972,14.813185722687948 A 68.29204827596259 68.29204827596259 0 0 1 62.61956946602282,21.71515918600457"/><text text-anchor="middle" pointer-events="none" font-size="8px" fill="#000000" x="53.58067378842417" y="24.553899276594365" font-family="sans-serif">trek</text></g><g class="relationship" transform="translate(184.56454846673284 -65.99365995718706) rotate(411.1570277250021)"><path class="outline" fill="#A5ABB6" stroke="none" d="M 24.018736134675446,6.953439040707552 L 24.277555179777966,5.987513214418485 A 108.40273217835765 108.40273217835765 0 0 0 40.201937235875434,9.000190228448702 L 40.090018381719176,9.9939075776403 A 109.40273217835765 109.40273217835765 0 0 1 24.018736134675446,6.953439040707552 Z M 61.1511557644644,10.325384873728936 L 61.0705644594739,9.328637643203592 A 108.40273217835765 108.40273217835765 0 0 0 77.08186763818671,6.8185903968822075 L 76.39698764488217,3.8978132066858735 L 84.01116108086224,5.707333277537706 L 77.99504096259274,10.712959983810654 L 77.3101609692882,7.7921827936143195 A 109.40273217835765 109.40273217835765 0 0 1 61.1511557644644,10.325384873728936"/><text text-anchor="middle" pointer-events="none" font-size="8px" fill="#000000" x="50.62045935481544" y="13.167761086630748" font-family="sans-serif">road</text></g><g class="relationship" transform="translate(184.56454846673284 -65.99365995718706) rotate(474.074914012202)"><path class="outline" fill="#A5ABB6" stroke="none" d="M 21.40063509461097,12.933012701892217 L 21.90063509461097,12.06698729810778 A 63.93880953568451 63.93880953568451 0 0 0 43.08583138606805,19.717145166271678 L 42.91716686830961,20.702818682426653 A 64.93880953568451 64.93880953568451 0 0 1 21.40063509461097,12.933012701892217 Z M 60.98988521303866,21.241676020048388 L 60.880245917192426,20.24770457940921 A 63.93880953568451 63.93880953568451 0 0 0 82.48359848913628,13.87333284819656 L 81.1410543206819,11.190503156294907 L 88.96729179831587,11.18786807045326 L 84.2736573804088,17.450439104065428 L 82.93111321195443,14.767609412163777 A 64.93880953568451 64.93880953568451 0 0 1 60.98988521303866,21.241676020048388"/><text text-anchor="middle" pointer-events="none" font-size="8px" fill="#000000" x="51.949581606597924" y="24.104539594678627" transform="rotate(180 51.949581606597924 21.104539594678627)" font-family="sans-serif">trek</text></g><g class="relationship" transform="translate(139.15198141090266 35.646772805114196) rotate(186.33852188468205)"><path class="outline" fill="#A5ABB6" stroke="none" d="M 24.018736134675446,-6.953439040707552 L 24.277555179777966,-5.987513214418485 A 138.49178323866627 138.49178323866627 0 0 1 49.23902658339642,-10.278251276738587 L 49.16044546158355,-11.275158999296025 A 139.49178323866627 139.49178323866627 0 0 0 24.018736134675446,-6.953439040707552 Z M 67.21082995598746,-11.526259494354377 L 67.16001001864603,-10.527551662218968 A 138.49178323866627 138.49178323866627 0 0 1 92.23117686039274,-6.9328220553632365 L 91.53562706305415,-4.01456735787327 L 99.15636278742575,-5.796248311154866 L 93.1585765901775,-10.82382831868319 L 92.46302679283892,-7.905573621193224 A 139.49178323866627 139.49178323866627 0 0 0 67.21082995598746,-11.526259494354377"/><text text-anchor="middle" pointer-events="none" font-size="8px" fill="#000000" x="58.18852634259461" y="-8.193059513176536" transform="rotate(180 58.18852634259461 -11.193059513176536)" font-family="sans-serif">trek</text></g><g class="relationship" transform="translate(16.431638917971306 22.01479997142723) rotate(450.93431676193)"><path class="outline" fill="#A5ABB6" stroke="none" d="M 24.018736134675446,-6.953439040707552 L 24.277555179777966,-5.987513214418485 A 111.43008008473004 111.43008008473004 0 0 1 42.44354093074654,-9.271963108351486 L 42.34774775565287,-10.267364367947565 A 112.43008008473004 112.43008008473004 0 0 0 24.018736134675446,-6.953439040707552 Z M 60.406499969250646,-10.547892596617075 L 60.34167107416533,-9.5499962020139 A 111.43008008473004 111.43008008473004 0 0 1 78.60090959542654,-6.831382946355598 L 77.91483468262801,-3.910886205383526 L 85.5297478098278,-5.7172909399877145 L 79.51567614582457,-10.725378600985028 L 78.82960123302604,-7.804881860012955 A 112.43008008473004 112.43008008473004 0 0 0 60.406499969250646,-10.547892596617075"/><text text-anchor="middle" pointer-events="none" font-size="8px" fill="#000000" x="51.37924785200034" y="-7.270898566921986" transform="rotate(180 51.37924785200034 -10.270898566921986)" font-family="sans-serif">trek</text></g><g class="relationship" transform="translate(14.640124126222656 131.8674132693546) rotate(420.976418267205)"><path class="outline" fill="#A5ABB6" stroke="none" d="M 24.018736134675446,6.953439040707552 L 24.277555179777966,5.987513214418485 A 118.90521677044956 118.90521677044956 0 0 0 44.31539385650111,9.553340105903999 L 44.225094235701114,10.549254750079584 A 119.90521677044956 119.90521677044956 0 0 1 24.018736134675446,6.953439040707552 Z M 62.28131291989242,10.82100690402136 L 62.22102510863132,9.822825868430442 A 118.90521677044956 118.90521677044956 0 0 0 82.35709767202624,6.861629830321031 L 81.66819750671074,3.941798232055767 L 89.28485476219777,5.740834710962432 L 83.27563122578023,10.75473862800805 L 82.58673106046473,7.834907029742786 A 119.90521677044956 119.90521677044956 0 0 1 62.28131291989242,10.82100690402136"/><text text-anchor="middle" pointer-events="none" font-size="8px" fill="#000000" x="53.2556047339171" y="13.525589129313232" font-family="sans-serif">trek</text></g><g class="relationship" transform="translate(14.640124126222656 131.8674132693546) rotate(420.976418267205)"><path class="outline" fill="#A5ABB6" stroke="none" d="M 24.018736134675446,-6.953439040707552 L 24.277555179777966,-5.987513214418485 A 118.90521677044956 118.90521677044956 0 0 1 32.000000770580314,-7.783082577422277 L 31.806127955765664,-8.764109249677333 A 119.90521677044956 119.90521677044956 0 0 0 24.018736134675446,-6.953439040707552 Z M 74.74837627874167,-9.41040450567624 L 74.58411414764163,-8.423987782234036 A 118.90521677044956 118.90521677044956 0 0 1 82.35709767202624,-6.861629830321031 L 81.66819750671074,-3.941798232055767 L 89.28485476219777,-5.740834710962432 L 83.27563122578023,-10.75473862800805 L 82.58673106046473,-7.834907029742786 A 119.90521677044956 119.90521677044956 0 0 0 74.74837627874167,-9.41040450567624"/><text text-anchor="middle" pointer-events="none" font-size="8px" fill="#000000" x="53.25560473391707" y="-7.525589129313232" font-family="sans-serif">twowheeler</text></g><g class="relationship" transform="translate(16.431638917971306 22.01479997142723) rotate(450.93431676193)"><path class="outline" fill="#A5ABB6" stroke="none" d="M 24.018736134675446,6.953439040707552 L 24.277555179777966,5.987513214418485 A 111.43008008473004 111.43008008473004 0 0 0 30.148832439861916,7.391425266024029 L 29.942703631144575,8.369950132451436 A 112.43008008473004 112.43008008473004 0 0 1 24.018736134675446,6.953439040707552 Z M 72.86449397771881,9.036705713060229 L 72.68885849066915,8.052250444554431 A 111.43008008473004 111.43008008473004 0 0 0 78.60090959542654,6.831382946355598 L 77.91483468262801,3.910886205383526 L 85.5297478098278,5.7172909399877145 L 79.51567614582457,10.725378600985028 L 78.82960123302604,7.804881860012955 A 112.43008008473004 112.43008008473004 0 0 1 72.86449397771881,9.036705713060229"/><text text-anchor="middle" pointer-events="none" font-size="8px" fill="#000000" x="51.379247852000375" y="13.270898566921986" transform="rotate(180 51.379247852000375 10.270898566921986)" font-family="sans-serif">twowheeler</text></g><g class="relationship" transform="translate(139.15198141090266 35.646772805114196) rotate(437.52627902596294)"><path class="outline" fill="#A5ABB6" stroke="none" d="M 25 0.5 L 50.3730316600117 0.5 L 50.3730316600117 -0.5 L 25 -0.5 Z M 68.37303166001169 0.5 L 93.7460633200234 0.5 L 93.7460633200234 3.5 L 100.7460633200234 0 L 93.7460633200234 -3.5 L 93.7460633200234 -0.5 L 68.37303166001169 -0.5 Z"/><text text-anchor="middle" pointer-events="none" font-size="8px" fill="#000000" x="59.3730316600117" y="3" font-family="sans-serif">trek</text></g><g class="relationship" transform="translate(184.56454846673284 -65.99365995718706) rotate(474.074914012202)"><path class="outline" fill="#A5ABB6" stroke="none" d="M 25 0.5 L 41.662102948748164 0.5 L 41.662102948748164 -0.5 L 25 -0.5 Z M 62.662102948748164 0.5 L 79.32420589749633 0.5 L 79.32420589749633 3.5 L 86.32420589749633 0 L 79.32420589749633 -3.5 L 79.32420589749633 -0.5 L 62.662102948748164 -0.5 Z"/><text text-anchor="middle" pointer-events="none" font-size="8px" fill="#000000" x="52.162102948748164" y="3" transform="rotate(180 52.162102948748164 0)" font-family="sans-serif">road</text></g><g class="relationship" transform="translate(139.15198141090266 35.646772805114196) rotate(186.33852188468205)"><path class="outline" fill="#A5ABB6" stroke="none" d="M 24.018736134675446,6.953439040707552 L 24.277555179777966,5.987513214418485 A 138.49178323866627 138.49178323866627 0 0 0 36.88321902580083,8.74288607964641 L 36.71542100412104,9.728707475194483 A 139.49178323866627 139.49178323866627 0 0 1 24.018736134675446,6.953439040707552 Z M 79.69405598659715,10.326587067420263 L 79.55374528685539,9.336479544199705 A 138.49178323866627 138.49178323866627 0 0 0 92.23117686039274,6.9328220553632365 L 91.53562706305415,4.01456735787327 L 99.15636278742575,5.796248311154866 L 93.1585765901775,10.82382831868319 L 92.46302679283892,7.905573621193224 A 139.49178323866627 139.49178323866627 0 0 1 79.69405598659715,10.326587067420263"/><text text-anchor="middle" pointer-events="none" font-size="8px" fill="#000000" x="58.18852634259464" y="14.193059513176536" transform="rotate(180 58.18852634259464 11.193059513176536)" font-family="sans-serif">twowheeler</text></g><g class="relationship" transform="translate(184.56454846673284 -65.99365995718706) rotate(474.074914012202)"><path class="outline" fill="#A5ABB6" stroke="none" d="M 21.40063509461097,-12.933012701892217 L 21.90063509461097,-12.06698729810778 A 63.93880953568451 63.93880953568451 0 0 1 23.476536914597414,-12.947410255210144 L 23.001183945585797,-13.827205432994063 A 64.93880953568451 64.93880953568451 0 0 0 21.40063509461097,-12.933012701892217 Z M 81.28013234697829,-15.564854323213623 L 80.85804126337962,-14.65830089558429 A 63.93880953568451 63.93880953568451 0 0 1 82.48359848913628,-13.87333284819656 L 81.1410543206819,-11.190503156294907 L 88.96729179831587,-11.18786807045326 L 84.2736573804088,-17.450439104065428 L 82.93111321195443,-14.767609412163777 A 64.93880953568451 64.93880953568451 0 0 0 81.28013234697829,-15.564854323213623"/><text text-anchor="middle" pointer-events="none" font-size="8px" fill="#000000" x="51.949581606597924" y="-18.104539594678627" transform="rotate(180 51.949581606597924 -21.104539594678627)" font-family="sans-serif">PublicTransport</text></g><g class="relationship" transform="translate(139.15198141090266 35.646772805114196) rotate(351.34867060148645)"><path class="outline" fill="#A5ABB6" stroke="none" d="M 25 0.5 L 44.836883644072294 0.5 L 44.836883644072294 -0.5 L 25 -0.5 Z M 62.836883644072294 0.5 L 82.67376728814459 0.5 L 82.67376728814459 3.5 L 89.67376728814459 0 L 82.67376728814459 -3.5 L 82.67376728814459 -0.5 L 62.836883644072294 -0.5 Z"/><text text-anchor="middle" pointer-events="none" font-size="8px" fill="#000000" x="53.836883644072294" y="3" font-family="sans-serif">trek</text></g><g class="relationship" transform="translate(16.431638917971306 22.01479997142723) rotate(505.0601774201929)"><path class="outline" fill="#A5ABB6" stroke="none" d="M 24.018736134675446,-6.953439040707552 L 24.277555179777966,-5.987513214418485 A 127.13685627824093 127.13685627824093 0 0 1 34.0471129790746,-8.196784237825753 L 33.865136779432376,-9.180087173224507 A 128.13685627824094 128.13685627824094 0 0 0 24.018736134675446,-6.953439040707552 Z M 76.8251800421223,-9.80516521302404 L 76.67188936765452,-8.816984071167326 A 127.13685627824093 127.13685627824093 0 0 1 86.50158858496553,-6.892886530536969 L 85.80976889103462,-3.9737453021807 L 93.42822140011864,-5.7651641160908955 L 87.42401484354008,-10.785074835011994 L 86.73219514960917,-7.865933606655726 A 128.13685627824094 128.13685627824094 0 0 0 76.8251800421223,-9.80516521302404"/><text text-anchor="middle" pointer-events="none" font-size="8px" fill="#000000" x="55.32604725730217" y="-7.806087757629598" transform="rotate(180 55.32604725730217 -10.806087757629598)" font-family="sans-serif">twowheeler</text></g><g class="relationship" transform="translate(-80.09800203090263 89.45460081635603) rotate(384.11733362921404)"><path class="outline" fill="#A5ABB6" stroke="none" d="M 21.40063509461097,12.933012701892217 L 21.90063509461097,12.06698729810778 A 56.153396513994785 56.153396513994785 0 0 0 27.524646583815414,14.905941249666533 L 27.124801015040298,15.822523772482072 A 57.153396513994785 57.153396513994785 0 0 1 21.40063509461097,12.933012701892217 Z M 69.44904288612362,17.17091020782228 L 69.1083508061744,16.230735273748905 A 56.153396513994785 56.153396513994785 0 0 0 74.90166370120079,13.755520036624041 L 73.57007922562696,11.067233819642905 L 81.39626228675242,11.096537296448616 L 76.67710966863257,17.339901659265557 L 75.34552519305873,14.65161544228442 A 57.153396513994785 57.153396513994785 0 0 1 69.44904288612362,17.17091020782228"/><text text-anchor="middle" pointer-events="none" font-size="8px" fill="#000000" x="48.17335693955315" y="23.061387227777914" font-family="sans-serif">twowheeler</text></g><g class="relationship" transform="translate(-80.09800203090263 89.45460081635603) rotate(384.11733362921404)"><path class="outline" fill="#A5ABB6" stroke="none" d="M 25 0.5 L 39.399323714130944 0.5 L 39.399323714130944 -0.5 L 25 -0.5 Z M 57.399323714130944 0.5 L 71.79864742826189 0.5 L 71.79864742826189 3.5 L 78.79864742826189 0 L 71.79864742826189 -3.5 L 71.79864742826189 -0.5 L 57.399323714130944 -0.5 Z"/><text text-anchor="middle" pointer-events="none" font-size="8px" fill="#000000" x="48.399323714130944" y="3" font-family="sans-serif">trek</text></g><g class="relationship" transform="translate(-80.09800203090263 89.45460081635603) rotate(384.11733362921404)"><path class="outline" fill="#A5ABB6" stroke="none" d="M 21.40063509461097,-12.933012701892217 L 21.90063509461097,-12.06698729810778 A 56.153396513994785 56.153396513994785 0 0 1 37.87729597358657,-18.270951740833667 L 37.66181413047123,-19.24745958785161 A 57.153396513994785 57.153396513994785 0 0 0 21.40063509461097,-12.933012701892217 Z M 58.71539214896873,-19.918194792087235 L 58.562504318492714,-18.929951243516165 A 56.153396513994785 56.153396513994785 0 0 1 74.90166370120079,-13.755520036624041 L 73.57007922562696,-11.067233819642905 L 81.39626228675242,-11.096537296448616 L 76.67710966863257,-17.339901659265557 L 75.34552519305873,-14.65161544228442 A 57.153396513994785 57.153396513994785 0 0 0 58.71539214896873,-19.918194792087235"/><text text-anchor="middle" pointer-events="none" font-size="8px" fill="#000000" x="48.17335693955313" y="-17.061387227777914" font-family="sans-serif">road</text></g><g class="relationship" transform="translate(16.431638917971306 22.01479997142723) rotate(505.0601774201929)"><path class="outline" fill="#A5ABB6" stroke="none" d="M 24.018736134675446,6.953439040707552 L 24.277555179777966,5.987513214418485 A 127.13685627824093 127.13685627824093 0 0 0 46.38154925999616,9.859924458700803 L 46.29659005953101,10.856308889659232 A 128.13685627824094 128.13685627824094 0 0 1 24.018736134675446,6.953439040707552 Z M 64.3502208842697,11.11899317277755 L 64.29428673563055,10.120558712727203 A 127.13685627824093 127.13685627824093 0 0 0 86.50158858496553,6.892886530536969 L 85.80976889103462,3.9737453021807 L 93.42822140011864,5.7651641160908955 L 87.42401484354008,10.785074835011994 L 86.73219514960917,7.865933606655726 A 128.13685627824094 128.13685627824094 0 0 1 64.3502208842697,11.11899317277755"/><text text-anchor="middle" pointer-events="none" font-size="8px" fill="#000000" x="55.326047257302214" y="13.806087757629598" transform="rotate(180 55.326047257302214 10.806087757629598)" font-family="sans-serif">trek</text></g><g class="relationship" transform="translate(-80.09800203090263 89.45460081635603) rotate(435.20281324173254)"><path class="outline" fill="#A5ABB6" stroke="none" d="M 25 0.5 L 49.099138497637654 0.5 L 49.099138497637654 -0.5 L 25 -0.5 Z M 67.09913849763765 0.5 L 91.19827699527531 0.5 L 91.19827699527531 3.5 L 98.19827699527531 0 L 91.19827699527531 -3.5 L 91.19827699527531 -0.5 L 67.09913849763765 -0.5 Z"/><text text-anchor="middle" pointer-events="none" font-size="8px" fill="#000000" x="58.099138497637654" y="3" font-family="sans-serif">trek</text></g><g class="relationship" transform="translate(-48.63337321370987 208.56712151842524) rotate(370.829729124978)"><path class="outline" fill="#A5ABB6" stroke="none" d="M 25 0.5 L 47.77190013704815 0.5 L 47.77190013704815 -0.5 L 25 -0.5 Z M 65.77190013704815 0.5 L 88.5438002740963 0.5 L 88.5438002740963 3.5 L 95.5438002740963 0 L 88.5438002740963 -3.5 L 88.5438002740963 -0.5 L 65.77190013704815 -0.5 Z"/><text text-anchor="middle" pointer-events="none" font-size="8px" fill="#000000" x="56.77190013704815" y="3" font-family="sans-serif">trek</text></g></g><g class="layer nodes"><g class="node" transform="translate(184.56454846673284,-65.99365995718706)"><circle class="outline" cx="0" cy="0" r="25" fill="#F79767" stroke="#f36924" stroke-width="2px"/><text text-anchor="middle" pointer-events="none" font-family="sans-serif" dy="1.5625" font-size="25" fill="#FFFFFF"/><text text-anchor="middle" pointer-events="none" x="0" y="5" font-size="10px" fill="#FFFFFF" font-family="sans-serif"> Darjeeli…</text></g><g class="node" transform="translate(69.7635289289108,231.2162130576442)"><circle class="outline" cx="0" cy="0" r="25" fill="#57C7E3" stroke="#23b3d7" stroke-width="2px"/><text text-anchor="middle" pointer-events="none" font-family="sans-serif" dy="1.5625" font-size="25" fill="#2A2C34"/><text text-anchor="middle" pointer-events="none" x="0" y="5" font-size="10px" fill="#2A2C34" font-family="sans-serif"> Sandak…</text></g><g class="node" transform="translate(252.52099292650956,18.397421164263108)"><circle class="outline" cx="0" cy="0" r="25" fill="#F16667" stroke="#eb2728" stroke-width="2px"/><text text-anchor="middle" pointer-events="none" font-family="sans-serif" dy="1.5625" font-size="25" fill="#FFFFFF"/><text text-anchor="middle" pointer-events="none" x="0" y="5" font-size="10px" fill="#FFFFFF" font-family="sans-serif"> Tumbli…</text></g><g class="node" transform="translate(276.44143900981993,130.4483491723224)"><circle class="outline" cx="0" cy="0" r="25" fill="#F16667" stroke="#eb2728" stroke-width="2px"/><text text-anchor="middle" pointer-events="none" font-family="sans-serif" dy="1.5625" font-size="25" fill="#FFFFFF"/><text text-anchor="middle" pointer-events="none" x="0" y="5" font-size="10px" fill="#FFFFFF" font-family="sans-serif"> Gairibus</text></g><g class="node" transform="translate(166.31210092952927,158.42462238807948)"><circle class="outline" cx="0" cy="0" r="25" fill="#F16667" stroke="#eb2728" stroke-width="2px"/><text text-anchor="middle" pointer-events="none" font-family="sans-serif" dy="1.5625" font-size="25" fill="#FFFFFF"/><text text-anchor="middle" pointer-events="none" x="0" y="5" font-size="10px" fill="#FFFFFF" font-family="sans-serif"> BhikeB…</text></g><g class="node" transform="translate(139.15198141090266,35.646772805114196)"><circle class="outline" cx="0" cy="0" r="25" fill="#F79767" stroke="#f36924" stroke-width="2px"/><text text-anchor="middle" pointer-events="none" font-family="sans-serif" dy="1.5625" font-size="25" fill="#FFFFFF"/><text text-anchor="middle" pointer-events="none" x="0" y="5" font-size="10px" fill="#FFFFFF" font-family="sans-serif"> Rimbik</text></g><g class="node" transform="translate(16.431638917971306,22.01479997142723)"><circle class="outline" cx="0" cy="0" r="25" fill="#F16667" stroke="#eb2728" stroke-width="2px"/><text text-anchor="middle" pointer-events="none" font-family="sans-serif" dy="1.5625" font-size="25" fill="#FFFFFF"/><text text-anchor="middle" pointer-events="none" x="0" y="5" font-size="10px" fill="#FFFFFF" font-family="sans-serif"> Sirikhola</text></g><g class="node" transform="translate(14.640124126222656,131.8674132693546)"><circle class="outline" cx="0" cy="0" r="25" fill="#F16667" stroke="#eb2728" stroke-width="2px"/><text text-anchor="middle" pointer-events="none" font-family="sans-serif" dy="1.5625" font-size="25" fill="#FFFFFF"/><text text-anchor="middle" pointer-events="none" x="0" y="5" font-size="10px" fill="#FFFFFF" font-family="sans-serif"> Gurdum</text></g><g class="node" transform="translate(-80.09800203090263,89.45460081635603)"><circle class="outline" cx="0" cy="0" r="25" fill="#F16667" stroke="#eb2728" stroke-width="2px"/><text text-anchor="middle" pointer-events="none" font-family="sans-serif" dy="1.5625" font-size="25" fill="#FFFFFF"/><text text-anchor="middle" pointer-events="none" x="0" y="5" font-size="10px" fill="#FFFFFF" font-family="sans-serif"> Ramm…</text></g><g class="node" transform="translate(-48.63337321370987,208.56712151842524)"><circle class="outline" cx="0" cy="0" r="25" fill="#57C7E3" stroke="#23b3d7" stroke-width="2px"/><text text-anchor="middle" pointer-events="none" font-family="sans-serif" dy="1.5625" font-size="25" fill="#2A2C34"/><text text-anchor="middle" pointer-events="none" x="0" y="5" font-size="10px" fill="#2A2C34" font-family="sans-serif"> Sabargr…</text></g></g></svg>