<svg xmlns="http://www.w3.org/2000/svg" width="268.13916015625" height="289.3428039550781" viewBox="-30.65821647644043 -40.404178619384766 268.13916015625 289.3428039550781"><title>Neo4j Graph Visualization</title><desc>Created using Neo4j (http://www.neo4j.com/)</desc><g class="layer relationships"><g class="relationship" transform="translate(115.82721212146569 -11.404177896930815) rotate(391.2678738380695)"><path class="outline" fill="#A5ABB6" stroke="none" d="M 25 0.5 L 33.69932695693918 0.5 L 33.69932695693918 -0.5 L 25 -0.5 Z M 67.69932695693919 0.5 L 76.39865391387836 0.5 L 76.39865391387836 3.5 L 83.39865391387836 0 L 76.39865391387836 -3.5 L 76.39865391387836 -0.5 L 67.69932695693919 -0.5 Z"/><text text-anchor="middle" pointer-events="none" font-size="8px" fill="#000000" x="50.69932695693918" y="3" font-family="sans-serif">ORIGIN</text></g><g class="relationship" transform="translate(115.82721212146569 -11.404177896930815) rotate(509.4704264070131)"><path class="outline" fill="#A5ABB6" stroke="none" d="M 25 0.5 L 26.37575940534076 0.5 L 26.37575940534076 -0.5 L 25 -0.5 Z M 74.37575940534076 0.5 L 75.75151881068152 0.5 L 75.75151881068152 3.5 L 82.75151881068152 0 L 75.75151881068152 -3.5 L 75.75151881068152 -0.5 L 74.37575940534076 -0.5 Z"/><text text-anchor="middle" pointer-events="none" font-size="8px" fill="#000000" x="50.37575940534076" y="3" transform="rotate(180 50.37575940534076 0)" font-family="sans-serif">DESTINA…</text></g><g class="relationship" transform="translate(-1.6582157826106667 148.20925625187925) rotate(283.2378076192308)"><path class="outline" fill="#A5ABB6" stroke="none" d="M 25 0.5 L 33.37018351873162 0.5 L 33.37018351873162 -0.5 L 25 -0.5 Z M 67.37018351873162 0.5 L 75.74036703746324 0.5 L 75.74036703746324 3.5 L 82.74036703746324 0 L 75.74036703746324 -3.5 L 75.74036703746324 -0.5 L 67.37018351873162 -0.5 Z"/><text text-anchor="middle" pointer-events="none" font-size="8px" fill="#000000" x="50.37018351873162" y="3" font-family="sans-serif">ORIGIN</text></g><g class="relationship" transform="translate(-1.6582157826106667 148.20925625187925) rotate(401.4384223661308)"><path class="outline" fill="#A5ABB6" stroke="none" d="M 25 0.5 L 26.691430783473635 0.5 L 26.691430783473635 -0.5 L 25 -0.5 Z M 74.69143078347363 0.5 L 76.38286156694727 0.5 L 76.38286156694727 3.5 L 83.38286156694727 0 L 76.38286156694727 -3.5 L 76.38286156694727 -0.5 L 74.69143078347363 -0.5 Z"/><text text-anchor="middle" pointer-events="none" font-size="8px" fill="#000000" x="50.691430783473635" y="3" font-family="sans-serif">DESTINA…</text></g></g><g class="layer nodes"><g class="node" transform="translate(208.4809608995342,44.859051726966044)"><circle class="outline" cx="0" cy="0" r="25" fill="#D9C8AE" stroke="#c0a378" stroke-width="2px"/><text text-anchor="middle" pointer-events="none" font-family="sans-serif" dy="1.5625" font-size="25" fill="#2A2C34"/><text text-anchor="middle" pointer-events="none" x="0" y="5" font-size="10px" fill="#2A2C34" font-family="sans-serif"> MSN</text></g><g class="node" transform="translate(79.59288522075208,219.93863145605485)"><circle class="outline" cx="0" cy="0" r="25" fill="#D9C8AE" stroke="#c0a378" stroke-width="2px"/><text text-anchor="middle" pointer-events="none" font-family="sans-serif" dy="1.5625" font-size="25" fill="#2A2C34"/><text text-anchor="middle" pointer-events="none" x="0" y="5" font-size="10px" fill="#2A2C34" font-family="sans-serif"> GRR</text></g><g class="node" transform="translate(115.82721212146569,-11.404177896930815)"><circle class="outline" cx="0" cy="0" r="25" fill="#8DCC93" stroke="#5db665" stroke-width="2px"/><text text-anchor="middle" pointer-events="none" font-family="sans-serif" dy="1.5625" font-size="25" fill="#2A2C34"/><text text-anchor="middle" pointer-events="none" x="0" y="5" font-size="10px" fill="#2A2C34" font-family="sans-serif"> 11/30/2…</text></g><g class="node" transform="translate(23.01360138408485,43.331765210853455)"><circle class="outline" cx="0" cy="0" r="25" fill="#D9C8AE" stroke="#c0a378" stroke-width="2px"/><text text-anchor="middle" pointer-events="none" font-family="sans-serif" dy="1.5625" font-size="25" fill="#2A2C34"/><text text-anchor="middle" pointer-events="none" x="0" y="5" font-size="10px" fill="#2A2C34" font-family="sans-serif"> ORD</text></g><g class="node" transform="translate(-1.6582157826106667,148.20925625187925)"><circle class="outline" cx="0" cy="0" r="25" fill="#8DCC93" stroke="#5db665" stroke-width="2px"/><text text-anchor="middle" pointer-events="none" font-family="sans-serif" dy="1.5625" font-size="25" fill="#2A2C34"/><text text-anchor="middle" pointer-events="none" x="0" y="5" font-size="10px" fill="#2A2C34" font-family="sans-serif"> 11/3/20…</text></g></g></svg>