<svg xmlns="http://www.w3.org/2000/svg" width="163.517333984375" height="242.54522705078125" viewBox="-0.34453582763671875 -20.130199432373047 163.517333984375 242.54522705078125"><title>Neo4j Graph Visualization</title><desc>Created using Neo4j (http://www.neo4j.com/)</desc><g class="layer relationships"><g class="relationship" transform="translate(134.17280732512597 8.869801343162441) rotate(520.8782821667643)"><path class="outline" fill="#A5ABB6" stroke="none" d="M 21.40063509461097,12.933012701892217 L 21.90063509461097,12.06698729810778 A 59.921739885971796 59.921739885971796 0 0 0 22.13635355576152,12.202367470166934 L 21.640287327738086,13.070652157014862 A 60.921739885971796 60.921739885971796 0 0 1 21.40063509461097,12.933012701892217 Z M 78.76597542645311,14.832252797017652 L 78.3243519528095,13.935052313554266 A 59.921739885971796 59.921739885971796 0 0 0 78.56796411204019,13.814453392377835 L 77.23089717480183,11.12888976338968 L 85.05712373588561,11.142224476986351 L 80.350720028358,17.395204897695375 L 79.01365309111964,14.70964126870722 A 60.921739885971796 60.921739885971796 0 0 1 78.76597542645311,14.832252797017652"/><text text-anchor="middle" pointer-events="none" font-size="8px" fill="#000000" x="49.99914841929882" y="23.566270024161156" transform="rotate(180 49.99914841929882 20.566270024161156)" font-family="sans-serif">PublicTransp…</text></g><g class="relationship" transform="translate(32.663833341501785 44.063531337420955) rotate(452.1527614957318)"><path class="outline" fill="#A5ABB6" stroke="none" d="M 25 0.5 L 40.853960497301756 0.5 L 40.853960497301756 -0.5 L 25 -0.5 Z M 58.853960497301756 0.5 L 74.70792099460351 0.5 L 74.70792099460351 3.5 L 81.70792099460351 0 L 74.70792099460351 -3.5 L 74.70792099460351 -0.5 L 58.853960497301756 -0.5 Z"/><text text-anchor="middle" pointer-events="none" font-size="8px" fill="#000000" x="49.853960497301756" y="3" transform="rotate(180 49.853960497301756 0)" font-family="sans-serif">trek</text></g><g class="relationship" transform="translate(28.655463783661904 150.6961406859609) rotate(383.43212056563505)"><path class="outline" fill="#A5ABB6" stroke="none" d="M 25 0.5 L 41.21251381960082 0.5 L 41.21251381960082 -0.5 L 25 -0.5 Z M 59.21251381960082 0.5 L 75.42502763920164 0.5 L 75.42502763920164 3.5 L 82.42502763920164 0 L 75.42502763920164 -3.5 L 75.42502763920164 -0.5 L 59.21251381960082 -0.5 Z"/><text text-anchor="middle" pointer-events="none" font-size="8px" fill="#000000" x="50.21251381960082" y="3" font-family="sans-serif">trek</text></g><g class="relationship" transform="translate(134.17280732512597 8.869801343162441) rotate(520.8782821667643)"><path class="outline" fill="#A5ABB6" stroke="none" d="M 25 0.5 L 41.21841032206012 0.5 L 41.21841032206012 -0.5 L 25 -0.5 Z M 59.21841032206012 0.5 L 75.43682064412025 0.5 L 75.43682064412025 3.5 L 82.43682064412025 0 L 75.43682064412025 -3.5 L 75.43682064412025 -0.5 L 59.21841032206012 -0.5 Z"/><text text-anchor="middle" pointer-events="none" font-size="8px" fill="#000000" x="50.21841032206012" y="3" transform="rotate(180 50.21841032206012 0)" font-family="sans-serif">trek</text></g><g class="relationship" transform="translate(134.17280732512597 8.869801343162441) rotate(520.8782821667643)"><path class="outline" fill="#A5ABB6" stroke="none" d="M 21.40063509461097,-12.933012701892217 L 21.90063509461097,-12.06698729810778 A 59.921739885971796 59.921739885971796 0 0 1 39.68652130676153,-18.845077236712925 L 39.483339894572836,-19.824218346942196 A 60.921739885971796 60.921739885971796 0 0 0 21.40063509461097,-12.933012701892217 Z M 60.540698415087185,-20.47356993431223 L 60.398233781054486,-19.48377004137936 A 59.921739885971796 59.921739885971796 0 0 1 78.56796411204019,-13.814453392377835 L 77.23089717480183,-11.12888976338968 L 85.05712373588561,-11.142224476986351 L 80.350720028358,-17.395204897695375 L 79.01365309111964,-14.70964126870722 A 60.921739885971796 60.921739885971796 0 0 0 60.540698415087185,-20.47356993431223"/><text text-anchor="middle" pointer-events="none" font-size="8px" fill="#000000" x="49.999148419298834" y="-17.566270024161156" transform="rotate(180 49.999148419298834 -20.566270024161156)" font-family="sans-serif">road</text></g></g><g class="layer nodes"><g class="node" transform="translate(134.17280732512597,8.869801343162441)"><circle class="outline" cx="0" cy="0" r="25" fill="#F79767" stroke="#f36924" stroke-width="2px"/><text text-anchor="middle" pointer-events="none" font-family="sans-serif" dy="1.5625" font-size="25" fill="#FFFFFF"/><text text-anchor="middle" pointer-events="none" x="0" y="5" font-size="10px" fill="#FFFFFF" font-family="sans-serif"> Darjeeli…</text></g><g class="node" transform="translate(127.22134668457446,193.41502750721165)"><circle class="outline" cx="0" cy="0" r="25" fill="#57C7E3" stroke="#23b3d7" stroke-width="2px"/><text text-anchor="middle" pointer-events="none" font-family="sans-serif" dy="1.5625" font-size="25" fill="#2A2C34"/><text text-anchor="middle" pointer-events="none" x="0" y="5" font-size="10px" fill="#2A2C34" font-family="sans-serif"> Sandak…</text></g><g class="node" transform="translate(32.663833341501785,44.063531337420955)"><circle class="outline" cx="0" cy="0" r="25" fill="#F79767" stroke="#f36924" stroke-width="2px"/><text text-anchor="middle" pointer-events="none" font-family="sans-serif" dy="1.5625" font-size="25" fill="#FFFFFF"/><text text-anchor="middle" pointer-events="none" x="0" y="5" font-size="10px" fill="#FFFFFF" font-family="sans-serif"> Rimbik</text></g><g class="node" transform="translate(28.655463783661904,150.6961406859609)"><circle class="outline" cx="0" cy="0" r="25" fill="#F16667" stroke="#eb2728" stroke-width="2px"/><text text-anchor="middle" pointer-events="none" font-family="sans-serif" dy="1.5625" font-size="25" fill="#FFFFFF"/><text text-anchor="middle" pointer-events="none" x="0" y="5" font-size="10px" fill="#FFFFFF" font-family="sans-serif"> BhikeB…</text></g></g></svg>