<svg xmlns="http://www.w3.org/2000/svg" width="384.864013671875" height="390.7552185058594" viewBox="-93.1014175415039 -96.82353973388672 384.864013671875 390.7552185058594"><title>Neo4j Graph Visualization</title><desc>Created using Neo4j (http://www.neo4j.com/)</desc><g class="layer relationships"><g class="relationship" transform="translate(198.79846635192513 233.6153852079641) rotate(233.5198774812523)"><path class="outline" fill="#A5ABB6" stroke="none" d="M 25 0.5 L 57.087616562288815 0.5 L 57.087616562288815 -0.5 L 25 -0.5 Z M 102.08761656228882 0.5 L 134.17523312457763 0.5 L 134.17523312457763 3.5 L 141.17523312457763 0 L 134.17523312457763 -3.5 L 134.17523312457763 -0.5 L 102.08761656228882 -0.5 Z"/><text text-anchor="middle" pointer-events="none" font-size="8px" fill="#000000" x="79.58761656228882" y="3" transform="rotate(180 79.58761656228882 0)" font-family="sans-serif">ACTED_IN</text></g><g class="relationship" transform="translate(-64.10141374307445 136.34119341200818) rotate(347.5130508440909)"><path class="outline" fill="#A5ABB6" stroke="none" d="M 25 0.5 L 58.038616610673245 0.5 L 58.038616610673245 -0.5 L 25 -0.5 Z M 103.03861661067324 0.5 L 136.0772332213465 0.5 L 136.0772332213465 3.5 L 143.0772332213465 0 L 136.0772332213465 -3.5 L 136.0772332213465 -0.5 L 103.03861661067324 -0.5 Z"/><text text-anchor="middle" pointer-events="none" font-size="8px" fill="#000000" x="80.53861661067324" y="3" font-family="sans-serif">ACTED_IN</text></g><g class="relationship" transform="translate(143.32796638835902 210.8548319887084) rotate(248.65179737315805)"><path class="outline" fill="#A5ABB6" stroke="none" d="M 25 0.5 L 33.510726838070205 0.5 L 33.510726838070205 -0.5 L 25 -0.5 Z M 78.51072683807021 0.5 L 87.02145367614041 0.5 L 87.02145367614041 3.5 L 94.02145367614041 0 L 87.02145367614041 -3.5 L 87.02145367614041 -0.5 L 78.51072683807021 -0.5 Z"/><text text-anchor="middle" pointer-events="none" font-size="8px" fill="#000000" x="56.010726838070205" y="3" transform="rotate(180 56.010726838070205 0)" font-family="sans-serif">ACTED_IN</text></g><g class="relationship" transform="translate(240.18511915135014 185.2147683597687) rotate(211.29429415365507)"><path class="outline" fill="#A5ABB6" stroke="none" d="M 25 0.5 L 56.02655723805758 0.5 L 56.02655723805758 -0.5 L 25 -0.5 Z M 101.02655723805758 0.5 L 132.05311447611516 0.5 L 132.05311447611516 3.5 L 139.05311447611516 0 L 132.05311447611516 -3.5 L 132.05311447611516 -0.5 L 101.02655723805758 -0.5 Z"/><text text-anchor="middle" pointer-events="none" font-size="8px" fill="#000000" x="78.52655723805758" y="3" transform="rotate(180 78.52655723805758 0)" font-family="sans-serif">ACTED_IN</text></g><g class="relationship" transform="translate(207.43198520947297 134.9748918361062) rotate(198.03285636198416)"><path class="outline" fill="#A5ABB6" stroke="none" d="M 25 0.5 L 30.4908720533562 0.5 L 30.4908720533562 -0.5 L 25 -0.5 Z M 75.4908720533562 0.5 L 80.9817441067124 0.5 L 80.9817441067124 3.5 L 87.9817441067124 0 L 80.9817441067124 -3.5 L 80.9817441067124 -0.5 L 75.4908720533562 -0.5 Z"/><text text-anchor="middle" pointer-events="none" font-size="8px" fill="#000000" x="52.9908720533562" y="3" transform="rotate(180 52.9908720533562 0)" font-family="sans-serif">ACTED_IN</text></g><g class="relationship" transform="translate(262.7626049020744 111.81430552366649) rotate(184.15159713298192)"><path class="outline" fill="#A5ABB6" stroke="none" d="M 25 0.5 L 55.59540944241114 0.5 L 55.59540944241114 -0.5 L 25 -0.5 Z M 100.59540944241114 0.5 L 131.19081888482228 0.5 L 131.19081888482228 3.5 L 138.19081888482228 0 L 131.19081888482228 -3.5 L 131.19081888482228 -0.5 L 100.59540944241114 -0.5 Z"/><text text-anchor="middle" pointer-events="none" font-size="8px" fill="#000000" x="78.09540944241114" y="3" transform="rotate(180 78.09540944241114 0)" font-family="sans-serif">ACTED_IN</text></g><g class="relationship" transform="translate(194.61126803160792 34.76126707783209) rotate(505.41198679741683)"><path class="outline" fill="#A5ABB6" stroke="none" d="M 25 0.5 L 31.461692279630647 0.5 L 31.461692279630647 -0.5 L 25 -0.5 Z M 76.46169227963065 0.5 L 82.9233845592613 0.5 L 82.9233845592613 3.5 L 89.9233845592613 0 L 82.9233845592613 -3.5 L 82.9233845592613 -0.5 L 76.46169227963065 -0.5 Z"/><text text-anchor="middle" pointer-events="none" font-size="8px" fill="#000000" x="53.96169227963065" y="3" transform="rotate(180 53.96169227963065 0)" font-family="sans-serif">ACTED_IN</text></g><g class="relationship" transform="translate(252.77561988980924 49.447549075216145) rotate(521.6909589763526)"><path class="outline" fill="#A5ABB6" stroke="none" d="M 25 0.5 L 54.46107806328344 0.5 L 54.46107806328344 -0.5 L 25 -0.5 Z M 99.46107806328344 0.5 L 128.92215612656688 0.5 L 128.92215612656688 3.5 L 135.92215612656688 0 L 128.92215612656688 -3.5 L 128.92215612656688 -0.5 L 99.46107806328344 -0.5 Z"/><text text-anchor="middle" pointer-events="none" font-size="8px" fill="#000000" x="76.96107806328344" y="3" transform="rotate(180 76.96107806328344 0)" font-family="sans-serif">ACTED_IN</text></g><g class="relationship" transform="translate(157.07848172456147 -26.594091725520904) rotate(474.26956237129383)"><path class="outline" fill="#A5ABB6" stroke="none" d="M 25 0.5 L 43.43345222013873 0.5 L 43.43345222013873 -0.5 L 25 -0.5 Z M 88.43345222013873 0.5 L 106.86690444027747 0.5 L 106.86690444027747 3.5 L 113.86690444027747 0 L 106.86690444027747 -3.5 L 106.86690444027747 -0.5 L 88.43345222013873 -0.5 Z"/><text text-anchor="middle" pointer-events="none" font-size="8px" fill="#000000" x="65.93345222013873" y="3" transform="rotate(180 65.93345222013873 0)" font-family="sans-serif">ACTED_IN</text></g><g class="relationship" transform="translate(216.82157468859742 -20.97264922278724) rotate(493.9999130526537)"><path class="outline" fill="#A5ABB6" stroke="none" d="M 25 0.5 L 58.08576304160938 0.5 L 58.08576304160938 -0.5 L 25 -0.5 Z M 103.08576304160938 0.5 L 136.17152608321877 0.5 L 136.17152608321877 3.5 L 143.17152608321877 0 L 136.17152608321877 -3.5 L 136.17152608321877 -0.5 L 103.08576304160938 -0.5 Z"/><text text-anchor="middle" pointer-events="none" font-size="8px" fill="#000000" x="80.58576304160938" y="3" transform="rotate(180 80.58576304160938 0)" font-family="sans-serif">ACTED_IN</text></g><g class="relationship" transform="translate(113.51778477880467 -67.82354087973846) rotate(454.60509599681984)"><path class="outline" fill="#A5ABB6" stroke="none" d="M 25 0.5 L 58.18353668624714 0.5 L 58.18353668624714 -0.5 L 25 -0.5 Z M 103.18353668624714 0.5 L 136.36707337249427 0.5 L 136.36707337249427 3.5 L 143.36707337249427 0 L 136.36707337249427 -3.5 L 136.36707337249427 -0.5 L 103.18353668624714 -0.5 Z"/><text text-anchor="middle" pointer-events="none" font-size="8px" fill="#000000" x="80.68353668624714" y="3" transform="rotate(180 80.68353668624714 0)" font-family="sans-serif">ACTED_IN</text></g><g class="relationship" transform="translate(74.02334268703771 -22.68938716120483) rotate(438.04548279997675)"><path class="outline" fill="#A5ABB6" stroke="none" d="M 25 0.5 L 36.704609997550236 0.5 L 36.704609997550236 -0.5 L 25 -0.5 Z M 81.70460999755024 0.5 L 93.40921999510047 0.5 L 93.40921999510047 3.5 L 100.40921999510047 0 L 93.40921999510047 -3.5 L 93.40921999510047 -0.5 L 81.70460999755024 -0.5 Z"/><text text-anchor="middle" pointer-events="none" font-size="8px" fill="#000000" x="59.204609997550236" y="3" font-family="sans-serif">ACTED_IN</text></g><g class="relationship" transform="translate(19.85453605578411 -48.47977823155317) rotate(421.64099798352026)"><path class="outline" fill="#A5ABB6" stroke="none" d="M 25 0.5 L 58.364595580451706 0.5 L 58.364595580451706 -0.5 L 25 -0.5 Z M 103.3645955804517 0.5 L 136.7291911609034 0.5 L 136.7291911609034 3.5 L 143.7291911609034 0 L 136.7291911609034 -3.5 L 136.7291911609034 -0.5 L 103.3645955804517 -0.5 Z"/><text text-anchor="middle" pointer-events="none" font-size="8px" fill="#000000" x="80.8645955804517" y="3" font-family="sans-serif">ACTED_IN</text></g><g class="relationship" transform="translate(12.055532220401117 14.903564140811746) rotate(404.0570699162872)"><path class="outline" fill="#A5ABB6" stroke="none" d="M 25 0.5 L 35.187484050530294 0.5 L 35.187484050530294 -0.5 L 25 -0.5 Z M 80.18748405053029 0.5 L 90.37496810106059 0.5 L 90.37496810106059 3.5 L 97.37496810106059 0 L 90.37496810106059 -3.5 L 90.37496810106059 -0.5 L 80.18748405053029 -0.5 Z"/><text text-anchor="middle" pointer-events="none" font-size="8px" fill="#000000" x="57.687484050530294" y="3" font-family="sans-serif">ACTED_IN</text></g><g class="relationship" transform="translate(-47.910938493520725 15.176037388163305) rotate(389.83340803150963)"><path class="outline" fill="#A5ABB6" stroke="none" d="M 25 0.5 L 59.25366614982319 0.5 L 59.25366614982319 -0.5 L 25 -0.5 Z M 104.25366614982319 0.5 L 138.50733229964638 0.5 L 138.50733229964638 3.5 L 145.50733229964638 0 L 138.50733229964638 -3.5 L 138.50733229964638 -0.5 L 104.25366614982319 -0.5 Z"/><text text-anchor="middle" pointer-events="none" font-size="8px" fill="#000000" x="81.75366614982319" y="3" font-family="sans-serif">ACTED_IN</text></g><g class="relationship" transform="translate(-46.096542168324845 76.56156326610298) rotate(369.1143619579512)"><path class="outline" fill="#A5ABB6" stroke="none" d="M 25 0.5 L 47.98236268274232 0.5 L 47.98236268274232 -0.5 L 25 -0.5 Z M 92.98236268274232 0.5 L 115.96472536548464 0.5 L 115.96472536548464 3.5 L 122.96472536548464 0 L 115.96472536548464 -3.5 L 115.96472536548464 -0.5 L 92.98236268274232 -0.5 Z"/><text text-anchor="middle" pointer-events="none" font-size="8px" fill="#000000" x="70.48236268274232" y="3" font-family="sans-serif">ACTED_IN</text></g><g class="relationship" transform="translate(-24.124930381880173 203.28092221684065) rotate(320.23709422238636)"><path class="outline" fill="#A5ABB6" stroke="none" d="M 25 0.5 L 59.7371463850959 0.5 L 59.7371463850959 -0.5 L 25 -0.5 Z M 94.7371463850959 0.5 L 129.4742927701918 0.5 L 129.4742927701918 3.5 L 136.4742927701918 0 L 129.4742927701918 -3.5 L 129.4742927701918 -0.5 L 94.7371463850959 -0.5 Z"/><text text-anchor="middle" pointer-events="none" font-size="8px" fill="#000000" x="77.2371463850959" y="3" font-family="sans-serif">WROTE</text></g><g class="relationship" transform="translate(-4.97421852741244 146.43318101608526) rotate(336.1387855413809)"><path class="outline" fill="#A5ABB6" stroke="none" d="M 25 0.5 L 36.392566700602885 0.5 L 36.392566700602885 -0.5 L 25 -0.5 Z M 71.39256670060288 0.5 L 82.78513340120577 0.5 L 82.78513340120577 3.5 L 89.78513340120577 0 L 82.78513340120577 -3.5 L 82.78513340120577 -0.5 L 71.39256670060288 -0.5 Z"/><text text-anchor="middle" pointer-events="none" font-size="8px" fill="#000000" x="53.892566700602885" y="3" font-family="sans-serif">WROTE</text></g><g class="relationship" transform="translate(17.507172444822324 246.4744887657522) rotate(299.38773501759795)"><path class="outline" fill="#A5ABB6" stroke="none" d="M 25 0.5 L 63.05332004471232 0.5 L 63.05332004471232 -0.5 L 25 -0.5 Z M 98.05332004471232 0.5 L 136.10664008942464 0.5 L 136.10664008942464 3.5 L 143.10664008942464 0 L 136.10664008942464 -3.5 L 136.10664008942464 -0.5 L 98.05332004471232 -0.5 Z"/><text text-anchor="middle" pointer-events="none" font-size="8px" fill="#000000" x="80.55332004471232" y="3" font-family="sans-serif">WROTE</text></g><g class="relationship" transform="translate(73.20196796038067 224.3015867601576) rotate(282.1661224208815)"><path class="outline" fill="#A5ABB6" stroke="none" d="M 25 0.5 L 36.57872871387693 0.5 L 36.57872871387693 -0.5 L 25 -0.5 Z M 83.57872871387693 0.5 L 95.15745742775385 0.5 L 95.15745742775385 3.5 L 102.15745742775385 0 L 95.15745742775385 -3.5 L 95.15745742775385 -0.5 L 83.57872871387693 -0.5 Z"/><text text-anchor="middle" pointer-events="none" font-size="8px" fill="#000000" x="60.07872871387693" y="3" font-family="sans-serif">DIRECTED</text></g><g class="relationship" transform="translate(117.35627994230911 264.9316700517561) rotate(263.99269426587597)"><path class="outline" fill="#A5ABB6" stroke="none" d="M 25 0.5 L 56.921191836760514 0.5 L 56.921191836760514 -0.5 L 25 -0.5 Z M 101.92119183676051 0.5 L 133.84238367352103 0.5 L 133.84238367352103 3.5 L 140.84238367352103 0 L 133.84238367352103 -3.5 L 133.84238367352103 -0.5 L 101.92119183676051 -0.5 Z"/><text text-anchor="middle" pointer-events="none" font-size="8px" fill="#000000" x="79.42119183676051" y="3" transform="rotate(180 79.42119183676051 0)" font-family="sans-serif">ACTED_IN</text></g></g><g class="layer nodes"><g class="node" transform="translate(100,100.0000000514813)"><circle class="outline" cx="0" cy="0" r="25" fill="#F79767" stroke="#f36924" stroke-width="2px"/><text text-anchor="middle" pointer-events="none" font-family="sans-serif" dy="1.5625" font-size="25" fill="#FFFFFF"/><text text-anchor="middle" pointer-events="none" font-family="sans-serif" dy="1.5625" font-size="25" fill="#FFFFFF"/><text text-anchor="middle" pointer-events="none" x="0" y="0" font-size="10px" fill="#FFFFFF" font-family="sans-serif"> Captain</text><text text-anchor="middle" pointer-events="none" x="0" y="10" font-size="10px" fill="#FFFFFF" font-family="sans-serif"> Americ…</text></g><g class="node" transform="translate(198.79846635192513,233.6153852079641)"><circle class="outline" cx="0" cy="0" r="25" fill="#57C7E3" stroke="#23b3d7" stroke-width="2px"/><text text-anchor="middle" pointer-events="none" font-family="sans-serif" dy="1.5625" font-size="25" fill="#2A2C34"/><text text-anchor="middle" pointer-events="none" font-family="sans-serif" dy="1.5625" font-size="25" fill="#2A2C34"/><text text-anchor="middle" pointer-events="none" x="0" y="0" font-size="10px" fill="#2A2C34" font-family="sans-serif"> Chris</text><text text-anchor="middle" pointer-events="none" x="0" y="10" font-size="10px" fill="#2A2C34" font-family="sans-serif"> Evans</text></g><g class="node" transform="translate(-64.10141374307445,136.34119341200818)"><circle class="outline" cx="0" cy="0" r="25" fill="#57C7E3" stroke="#23b3d7" stroke-width="2px"/><text text-anchor="middle" pointer-events="none" font-family="sans-serif" dy="1.5625" font-size="25" fill="#2A2C34"/><text text-anchor="middle" pointer-events="none" font-family="sans-serif" dy="1.5625" font-size="25" fill="#2A2C34"/><text text-anchor="middle" pointer-events="none" x="0" y="0" font-size="10px" fill="#2A2C34" font-family="sans-serif"> Samuel</text><text text-anchor="middle" pointer-events="none" x="0" y="10" font-size="10px" fill="#2A2C34" font-family="sans-serif"> L. Jack…</text></g><g class="node" transform="translate(143.32796638835902,210.8548319887084)"><circle class="outline" cx="0" cy="0" r="25" fill="#57C7E3" stroke="#23b3d7" stroke-width="2px"/><text text-anchor="middle" pointer-events="none" font-family="sans-serif" dy="1.5625" font-size="25" fill="#2A2C34"/><text text-anchor="middle" pointer-events="none" font-family="sans-serif" dy="1.5625" font-size="25" fill="#2A2C34"/><text text-anchor="middle" pointer-events="none" x="0" y="0" font-size="10px" fill="#2A2C34" font-family="sans-serif"> Hayley</text><text text-anchor="middle" pointer-events="none" x="0" y="10" font-size="10px" fill="#2A2C34" font-family="sans-serif"> Atwell</text></g><g class="node" transform="translate(240.18511915135014,185.2147683597687)"><circle class="outline" cx="0" cy="0" r="25" fill="#57C7E3" stroke="#23b3d7" stroke-width="2px"/><text text-anchor="middle" pointer-events="none" font-family="sans-serif" dy="1.5625" font-size="25" fill="#2A2C34"/><text text-anchor="middle" pointer-events="none" x="0" y="5" font-size="10px" fill="#2A2C34" font-family="sans-serif"> Sebasti…</text></g><g class="node" transform="translate(207.43198520947297,134.9748918361062)"><circle class="outline" cx="0" cy="0" r="25" fill="#57C7E3" stroke="#23b3d7" stroke-width="2px"/><text text-anchor="middle" pointer-events="none" font-family="sans-serif" dy="1.5625" font-size="25" fill="#2A2C34"/><text text-anchor="middle" pointer-events="none" font-family="sans-serif" dy="1.5625" font-size="25" fill="#2A2C34"/><text text-anchor="middle" pointer-events="none" font-family="sans-serif" dy="1.5625" font-size="25" fill="#2A2C34"/><text text-anchor="middle" pointer-events="none" x="0" y="-5" font-size="10px" fill="#2A2C34" font-family="sans-serif"> Tommy</text><text text-anchor="middle" pointer-events="none" x="0" y="5" font-size="10px" fill="#2A2C34" font-family="sans-serif"> Lee</text><text text-anchor="middle" pointer-events="none" x="0" y="15" font-size="10px" fill="#2A2C34" font-family="sans-serif"> Jones</text></g><g class="node" transform="translate(262.7626049020744,111.81430552366649)"><circle class="outline" cx="0" cy="0" r="25" fill="#57C7E3" stroke="#23b3d7" stroke-width="2px"/><text text-anchor="middle" pointer-events="none" font-family="sans-serif" dy="1.5625" font-size="25" fill="#2A2C34"/><text text-anchor="middle" pointer-events="none" font-family="sans-serif" dy="1.5625" font-size="25" fill="#2A2C34"/><text text-anchor="middle" pointer-events="none" x="0" y="0" font-size="10px" fill="#2A2C34" font-family="sans-serif"> Dominic</text><text text-anchor="middle" pointer-events="none" x="0" y="10" font-size="10px" fill="#2A2C34" font-family="sans-serif"> Cooper</text></g><g class="node" transform="translate(194.61126803160792,34.76126707783209)"><circle class="outline" cx="0" cy="0" r="25" fill="#57C7E3" stroke="#23b3d7" stroke-width="2px"/><text text-anchor="middle" pointer-events="none" font-family="sans-serif" dy="1.5625" font-size="25" fill="#2A2C34"/><text text-anchor="middle" pointer-events="none" font-family="sans-serif" dy="1.5625" font-size="25" fill="#2A2C34"/><text text-anchor="middle" pointer-events="none" x="0" y="0" font-size="10px" fill="#2A2C34" font-family="sans-serif"> Richard</text><text text-anchor="middle" pointer-events="none" x="0" y="10" font-size="10px" fill="#2A2C34" font-family="sans-serif"> Armita…</text></g><g class="node" transform="translate(252.77561988980924,49.447549075216145)"><circle class="outline" cx="0" cy="0" r="25" fill="#57C7E3" stroke="#23b3d7" stroke-width="2px"/><text text-anchor="middle" pointer-events="none" font-family="sans-serif" dy="1.5625" font-size="25" fill="#2A2C34"/><text text-anchor="middle" pointer-events="none" font-family="sans-serif" dy="1.5625" font-size="25" fill="#2A2C34"/><text text-anchor="middle" pointer-events="none" x="0" y="0" font-size="10px" fill="#2A2C34" font-family="sans-serif"> Stanley</text><text text-anchor="middle" pointer-events="none" x="0" y="10" font-size="10px" fill="#2A2C34" font-family="sans-serif"> Tucci</text></g><g class="node" transform="translate(157.07848172456147,-26.594091725520904)"><circle class="outline" cx="0" cy="0" r="25" fill="#57C7E3" stroke="#23b3d7" stroke-width="2px"/><text text-anchor="middle" pointer-events="none" font-family="sans-serif" dy="1.5625" font-size="25" fill="#2A2C34"/><text text-anchor="middle" pointer-events="none" font-family="sans-serif" dy="1.5625" font-size="25" fill="#2A2C34"/><text text-anchor="middle" pointer-events="none" x="0" y="0" font-size="10px" fill="#2A2C34" font-family="sans-serif"> Toby</text><text text-anchor="middle" pointer-events="none" x="0" y="10" font-size="10px" fill="#2A2C34" font-family="sans-serif"> Jones</text></g><g class="node" transform="translate(216.82157468859742,-20.97264922278724)"><circle class="outline" cx="0" cy="0" r="25" fill="#57C7E3" stroke="#23b3d7" stroke-width="2px"/><text text-anchor="middle" pointer-events="none" font-family="sans-serif" dy="1.5625" font-size="25" fill="#2A2C34"/><text text-anchor="middle" pointer-events="none" font-family="sans-serif" dy="1.5625" font-size="25" fill="#2A2C34"/><text text-anchor="middle" pointer-events="none" x="0" y="0" font-size="10px" fill="#2A2C34" font-family="sans-serif"> Neal</text><text text-anchor="middle" pointer-events="none" x="0" y="10" font-size="10px" fill="#2A2C34" font-family="sans-serif"> McDon…</text></g><g class="node" transform="translate(113.51778477880467,-67.82354087973846)"><circle class="outline" cx="0" cy="0" r="25" fill="#57C7E3" stroke="#23b3d7" stroke-width="2px"/><text text-anchor="middle" pointer-events="none" font-family="sans-serif" dy="1.5625" font-size="25" fill="#2A2C34"/><text text-anchor="middle" pointer-events="none" font-family="sans-serif" dy="1.5625" font-size="25" fill="#2A2C34"/><text text-anchor="middle" pointer-events="none" x="0" y="0" font-size="10px" fill="#2A2C34" font-family="sans-serif"> Derek</text><text text-anchor="middle" pointer-events="none" x="0" y="10" font-size="10px" fill="#2A2C34" font-family="sans-serif"> Luke</text></g><g class="node" transform="translate(74.02334268703771,-22.68938716120483)"><circle class="outline" cx="0" cy="0" r="25" fill="#57C7E3" stroke="#23b3d7" stroke-width="2px"/><text text-anchor="middle" pointer-events="none" font-family="sans-serif" dy="1.5625" font-size="25" fill="#2A2C34"/><text text-anchor="middle" pointer-events="none" font-family="sans-serif" dy="1.5625" font-size="25" fill="#2A2C34"/><text text-anchor="middle" pointer-events="none" x="0" y="0" font-size="10px" fill="#2A2C34" font-family="sans-serif"> Kenneth</text><text text-anchor="middle" pointer-events="none" x="0" y="10" font-size="10px" fill="#2A2C34" font-family="sans-serif"> Choi</text></g><g class="node" transform="translate(19.85453605578411,-48.47977823155317)"><circle class="outline" cx="0" cy="0" r="25" fill="#57C7E3" stroke="#23b3d7" stroke-width="2px"/><text text-anchor="middle" pointer-events="none" font-family="sans-serif" dy="1.5625" font-size="25" fill="#2A2C34"/><text text-anchor="middle" pointer-events="none" x="0" y="5" font-size="10px" fill="#2A2C34" font-family="sans-serif"> JJ Feild</text></g><g class="node" transform="translate(12.055532220401117,14.903564140811746)"><circle class="outline" cx="0" cy="0" r="25" fill="#57C7E3" stroke="#23b3d7" stroke-width="2px"/><text text-anchor="middle" pointer-events="none" font-family="sans-serif" dy="1.5625" font-size="25" fill="#2A2C34"/><text text-anchor="middle" pointer-events="none" font-family="sans-serif" dy="1.5625" font-size="25" fill="#2A2C34"/><text text-anchor="middle" pointer-events="none" x="0" y="0" font-size="10px" fill="#2A2C34" font-family="sans-serif"> Lex</text><text text-anchor="middle" pointer-events="none" x="0" y="10" font-size="10px" fill="#2A2C34" font-family="sans-serif"> Shrapn…</text></g><g class="node" transform="translate(-47.910938493520725,15.176037388163305)"><circle class="outline" cx="0" cy="0" r="25" fill="#57C7E3" stroke="#23b3d7" stroke-width="2px"/><text text-anchor="middle" pointer-events="none" font-family="sans-serif" dy="1.5625" font-size="25" fill="#2A2C34"/><text text-anchor="middle" pointer-events="none" font-family="sans-serif" dy="1.5625" font-size="25" fill="#2A2C34"/><text text-anchor="middle" pointer-events="none" x="0" y="0" font-size="10px" fill="#2A2C34" font-family="sans-serif"> Michael</text><text text-anchor="middle" pointer-events="none" x="0" y="10" font-size="10px" fill="#2A2C34" font-family="sans-serif"> Brandon</text></g><g class="node" transform="translate(-46.096542168324845,76.56156326610298)"><circle class="outline" cx="0" cy="0" r="25" fill="#57C7E3" stroke="#23b3d7" stroke-width="2px"/><text text-anchor="middle" pointer-events="none" font-family="sans-serif" dy="1.5625" font-size="25" fill="#2A2C34"/><text text-anchor="middle" pointer-events="none" font-family="sans-serif" dy="1.5625" font-size="25" fill="#2A2C34"/><text text-anchor="middle" pointer-events="none" x="0" y="0" font-size="10px" fill="#2A2C34" font-family="sans-serif"> Martin</text><text text-anchor="middle" pointer-events="none" x="0" y="10" font-size="10px" fill="#2A2C34" font-family="sans-serif"> Sherm…</text></g><g class="node" transform="translate(-24.124930381880173,203.28092221684065)"><circle class="outline" cx="0" cy="0" r="25" fill="#57C7E3" stroke="#23b3d7" stroke-width="2px"/><text text-anchor="middle" pointer-events="none" font-family="sans-serif" dy="1.5625" font-size="25" fill="#2A2C34"/><text text-anchor="middle" pointer-events="none" x="0" y="5" font-size="10px" fill="#2A2C34" font-family="sans-serif"> Christop…</text></g><g class="node" transform="translate(-4.97421852741244,146.43318101608526)"><circle class="outline" cx="0" cy="0" r="25" fill="#57C7E3" stroke="#23b3d7" stroke-width="2px"/><text text-anchor="middle" pointer-events="none" font-family="sans-serif" dy="1.5625" font-size="25" fill="#2A2C34"/><text text-anchor="middle" pointer-events="none" font-family="sans-serif" dy="1.5625" font-size="25" fill="#2A2C34"/><text text-anchor="middle" pointer-events="none" x="0" y="0" font-size="10px" fill="#2A2C34" font-family="sans-serif"> Stephen</text><text text-anchor="middle" pointer-events="none" x="0" y="10" font-size="10px" fill="#2A2C34" font-family="sans-serif"> McFeely</text></g><g class="node" transform="translate(17.507172444822324,246.4744887657522)"><circle class="outline" cx="0" cy="0" r="25" fill="#57C7E3" stroke="#23b3d7" stroke-width="2px"/><text text-anchor="middle" pointer-events="none" font-family="sans-serif" dy="1.5625" font-size="25" fill="#2A2C34"/><text text-anchor="middle" pointer-events="none" font-family="sans-serif" dy="1.5625" font-size="25" fill="#2A2C34"/><text text-anchor="middle" pointer-events="none" x="0" y="0" font-size="10px" fill="#2A2C34" font-family="sans-serif"> Joe</text><text text-anchor="middle" pointer-events="none" x="0" y="10" font-size="10px" fill="#2A2C34" font-family="sans-serif"> Simon</text></g><g class="node" transform="translate(73.20196796038067,224.3015867601576)"><circle class="outline" cx="0" cy="0" r="25" fill="#57C7E3" stroke="#23b3d7" stroke-width="2px"/><text text-anchor="middle" pointer-events="none" font-family="sans-serif" dy="1.5625" font-size="25" fill="#2A2C34"/><text text-anchor="middle" pointer-events="none" font-family="sans-serif" dy="1.5625" font-size="25" fill="#2A2C34"/><text text-anchor="middle" pointer-events="none" x="0" y="0" font-size="10px" fill="#2A2C34" font-family="sans-serif"> Joe</text><text text-anchor="middle" pointer-events="none" x="0" y="10" font-size="10px" fill="#2A2C34" font-family="sans-serif"> Johnston</text></g><g class="node" transform="translate(117.35627994230911,264.9316700517561)"><circle class="outline" cx="0" cy="0" r="25" fill="#A5ABB6" stroke="#9AA1AC" stroke-width="2px"/><text text-anchor="middle" pointer-events="none" font-family="sans-serif" dy="1.5625" font-size="25" fill="#FFFFFF"/><text text-anchor="middle" pointer-events="none" x="0" y="5" font-size="10px" fill="#FFFFFF" font-family="sans-serif"> </text></g></g></svg>