<svg xmlns="http://www.w3.org/2000/svg" width="263.6423034667969" height="259.38812255859375" viewBox="-34.94617462158203 -21.655197143554688 263.6423034667969 259.38812255859375"><title>Neo4j Graph Visualization</title><desc>Created using Neo4j (http://www.neo4j.com/)</desc><g class="layer relationships"><g class="relationship" transform="translate(100 100.0000000398568) rotate(458.4083396269293)"><path class="outline" fill="#A5ABB6" stroke="none" d="M 25 0.5 L 28.95720040256836 0.5 L 28.95720040256836 -0.5 L 25 -0.5 Z M 73.95720040256836 0.5 L 77.91440080513672 0.5 L 77.91440080513672 3.5 L 84.91440080513672 0 L 77.91440080513672 -3.5 L 77.91440080513672 -0.5 L 73.95720040256836 -0.5 Z"/><text text-anchor="middle" pointer-events="none" font-size="8px" fill="#000000" x="51.45720040256836" y="3" transform="rotate(180 51.45720040256836 0)" font-family="sans-serif">ACTED_IN</text></g><g class="relationship" transform="translate(100 100.0000000398568) rotate(387.3749518127589)"><path class="outline" fill="#A5ABB6" stroke="none" d="M 25 0.5 L 30.134158824500332 0.5 L 30.134158824500332 -0.5 L 25 -0.5 Z M 75.13415882450033 0.5 L 80.26831764900066 0.5 L 80.26831764900066 3.5 L 87.26831764900066 0 L 80.26831764900066 -3.5 L 80.26831764900066 -0.5 L 75.13415882450033 -0.5 Z"/><text text-anchor="middle" pointer-events="none" font-size="8px" fill="#000000" x="52.63415882450033" y="3" font-family="sans-serif">ACTED_IN</text></g><g class="relationship" transform="translate(100 100.0000000398568) rotate(311.51307337269117)"><path class="outline" fill="#A5ABB6" stroke="none" d="M 25 0.5 L 29.88421839972878 0.5 L 29.88421839972878 -0.5 L 25 -0.5 Z M 74.88421839972878 0.5 L 79.76843679945756 0.5 L 79.76843679945756 3.5 L 86.76843679945756 0 L 79.76843679945756 -3.5 L 79.76843679945756 -0.5 L 74.88421839972878 -0.5 Z"/><text text-anchor="middle" pointer-events="none" font-size="8px" fill="#000000" x="52.38421839972878" y="3" font-family="sans-serif">ACTED_IN</text></g><g class="relationship" transform="translate(100 100.0000000398568) rotate(235.63540826229865)"><path class="outline" fill="#A5ABB6" stroke="none" d="M 25 0.5 L 30.123202730016885 0.5 L 30.123202730016885 -0.5 L 25 -0.5 Z M 75.12320273001689 0.5 L 80.24640546003377 0.5 L 80.24640546003377 3.5 L 87.24640546003377 0 L 80.24640546003377 -3.5 L 80.24640546003377 -0.5 L 75.12320273001689 -0.5 Z"/><text text-anchor="middle" pointer-events="none" font-size="8px" fill="#000000" x="52.623202730016885" y="3" transform="rotate(180 52.623202730016885 0)" font-family="sans-serif">ACTED_IN</text></g><g class="relationship" transform="translate(100 100.0000000398568) rotate(524.5824946305702)"><path class="outline" fill="#A5ABB6" stroke="none" d="M 25 0.5 L 28.950525424890415 0.5 L 28.950525424890415 -0.5 L 25 -0.5 Z M 73.95052542489042 0.5 L 77.90105084978083 0.5 L 77.90105084978083 3.5 L 84.90105084978083 0 L 77.90105084978083 -3.5 L 77.90105084978083 -0.5 L 73.95052542489042 -0.5 Z"/><text text-anchor="middle" pointer-events="none" font-size="8px" fill="#000000" x="51.450525424890415" y="3" transform="rotate(180 51.450525424890415 0)" font-family="sans-serif">ACTED_IN</text></g></g><g class="layer nodes"><g class="node" transform="translate(100,100.0000000398568)"><circle class="outline" cx="0" cy="0" r="25" fill="#57C7E3" stroke="#23b3d7" stroke-width="2px"/><text text-anchor="middle" pointer-events="none" font-family="sans-serif" dy="1.5625" font-size="25" fill="#2A2C34"/><text text-anchor="middle" pointer-events="none" font-family="sans-serif" dy="1.5625" font-size="25" fill="#2A2C34"/><text text-anchor="middle" pointer-events="none" x="0" y="0" font-size="10px" fill="#2A2C34" font-family="sans-serif"> Hugo</text><text text-anchor="middle" pointer-events="none" x="0" y="10" font-size="10px" fill="#2A2C34" font-family="sans-serif"> Weaving</text></g><g class="node" transform="translate(83.92754476920656,208.73293749307922)"><circle class="outline" cx="0" cy="0" r="25" fill="#F79767" stroke="#f36924" stroke-width="2px"/><text text-anchor="middle" pointer-events="none" font-family="sans-serif" dy="1.5625" font-size="25" fill="#FFFFFF"/><text text-anchor="middle" pointer-events="none" font-family="sans-serif" dy="1.5625" font-size="25" fill="#FFFFFF"/><text text-anchor="middle" pointer-events="none" x="0" y="0" font-size="10px" fill="#FFFFFF" font-family="sans-serif"> The</text><text text-anchor="middle" pointer-events="none" x="0" y="10" font-size="10px" fill="#FFFFFF" font-family="sans-serif"> Matrix</text></g><g class="node" transform="translate(199.69611708122864,151.62227611000762)"><circle class="outline" cx="0" cy="0" r="25" fill="#F79767" stroke="#f36924" stroke-width="2px"/><text text-anchor="middle" pointer-events="none" font-family="sans-serif" dy="1.5625" font-size="25" fill="#FFFFFF"/><text text-anchor="middle" pointer-events="none" font-family="sans-serif" dy="1.5625" font-size="25" fill="#FFFFFF"/><text text-anchor="middle" pointer-events="none" font-family="sans-serif" dy="1.5625" font-size="25" fill="#FFFFFF"/><text text-anchor="middle" pointer-events="none" x="0" y="-5" font-size="10px" fill="#FFFFFF" font-family="sans-serif"> The</text><text text-anchor="middle" pointer-events="none" x="0" y="5" font-size="10px" fill="#FFFFFF" font-family="sans-serif"> Matrix</text><text text-anchor="middle" pointer-events="none" x="0" y="15" font-size="10px" fill="#FFFFFF" font-family="sans-serif"> Reloa…</text></g><g class="node" transform="translate(174.079105359167,16.307290597637312)"><circle class="outline" cx="0" cy="0" r="25" fill="#F79767" stroke="#f36924" stroke-width="2px"/><text text-anchor="middle" pointer-events="none" font-family="sans-serif" dy="1.5625" font-size="25" fill="#FFFFFF"/><text text-anchor="middle" pointer-events="none" font-family="sans-serif" dy="1.5625" font-size="25" fill="#FFFFFF"/><text text-anchor="middle" pointer-events="none" font-family="sans-serif" dy="1.5625" font-size="25" fill="#FFFFFF"/><text text-anchor="middle" pointer-events="none" x="0" y="-5" font-size="10px" fill="#FFFFFF" font-family="sans-serif"> The</text><text text-anchor="middle" pointer-events="none" x="0" y="5" font-size="10px" fill="#FFFFFF" font-family="sans-serif"> Matrix</text><text text-anchor="middle" pointer-events="none" x="0" y="15" font-size="10px" fill="#FFFFFF" font-family="sans-serif"> Revol…</text></g><g class="node" transform="translate(36.64173261515966,7.344803247181552)"><circle class="outline" cx="0" cy="0" r="25" fill="#F79767" stroke="#f36924" stroke-width="2px"/><text text-anchor="middle" pointer-events="none" font-family="sans-serif" dy="1.5625" font-size="25" fill="#FFFFFF"/><text text-anchor="middle" pointer-events="none" font-family="sans-serif" dy="1.5625" font-size="25" fill="#FFFFFF"/><text text-anchor="middle" pointer-events="none" x="0" y="0" font-size="10px" fill="#FFFFFF" font-family="sans-serif"> Cloud</text><text text-anchor="middle" pointer-events="none" x="0" y="10" font-size="10px" fill="#FFFFFF" font-family="sans-serif"> Atlas</text></g><g class="node" transform="translate(-5.946176345274463,129.21726712119278)"><circle class="outline" cx="0" cy="0" r="25" fill="#F79767" stroke="#f36924" stroke-width="2px"/><text text-anchor="middle" pointer-events="none" font-family="sans-serif" dy="1.5625" font-size="25" fill="#FFFFFF"/><text text-anchor="middle" pointer-events="none" font-family="sans-serif" dy="1.5625" font-size="25" fill="#FFFFFF"/><text text-anchor="middle" pointer-events="none" x="0" y="0" font-size="10px" fill="#FFFFFF" font-family="sans-serif"> V for</text><text text-anchor="middle" pointer-events="none" x="0" y="10" font-size="10px" fill="#FFFFFF" font-family="sans-serif"> Vendetta</text></g></g></svg>